<svg xmlns="http://www.w3.org/2000/svg" xmlns:xlink="http://www.w3.org/1999/xlink" width="500" zoomAndPan="magnify" viewBox="0 0 375 374.999991" height="500" preserveAspectRatio="xMidYMid meet" version="1.2"><defs><clipPath id="7b569f0b6c"><path d="M 7 122.507812 L 369 122.507812 L 369 252.257812 L 7 252.257812 Z M 7 122.507812 "/></clipPath></defs><g id="59b6e703a3"><g clip-rule="nonzero" clip-path="url(#7b569f0b6c)"><path style=" stroke:none;fill-rule:nonzero;fill:#16264a;fill-opacity:1;" d="M 11.707031 236.304688 C 6.167969 232.554688 7.34375 228.113281 8.835938 223.875 C 12.914062 212.132812 18.941406 201.5625 28.125 192.914062 C 57.40625 165.386719 92.078125 147.515625 130.746094 137.605469 C 170.386719 127.4375 209.511719 129.671875 247.34375 145.910156 C 265.140625 153.558594 282.535156 162.179688 300.734375 170.65625 C 300.074219 168.679688 299.46875 166.160156 298.4375 163.78125 C 291.519531 147.601562 292.121094 143.789062 304.492188 131.015625 C 307.25 128.152344 310.519531 125.804688 314.367188 122.507812 C 316.433594 125.832031 317.984375 128.179688 319.390625 130.617188 C 334.574219 156.765625 349.300781 183.203125 365.230469 208.921875 C 369.078125 215.167969 368.734375 219.980469 366.207031 225.277344 C 361.097656 235.933594 352.113281 243.550781 342.757812 250.109375 C 339.484375 252.402344 333.371094 251.65625 328.75 251 C 294.90625 246.042969 260.917969 244.238281 226.847656 246.960938 C 216.226562 247.820312 205.75 250.28125 194.269531 252.144531 C 193.003906 248.765625 195.101562 245.011719 197.109375 241.832031 C 206.554688 226.910156 218.035156 214.480469 236.867188 211.84375 C 245.765625 210.613281 254.632812 209.296875 263.53125 208.148438 C 267.492188 207.632812 271.511719 207.519531 276.421875 207.148438 C 258.25 187.441406 178.394531 168.566406 137.890625 173.78125 C 88.636719 180.109375 46.839844 201.878906 11.707031 236.304688 Z M 11.707031 236.304688 "/></g></g></svg>